<?xml version="1.0" encoding="UTF-8"?>
<svg width="40px" height="40px" viewBox="0 0 40 40" version="1.1" xmlns="http://www.w3.org/2000/svg" xmlns:xlink="http://www.w3.org/1999/xlink">
    <!-- Generator: Sketch 44.1 (41455) - http://www.bohemiancoding.com/sketch -->
    <title>delete_normal</title>
    <desc>Created with Sketch.</desc>
    <defs>
        <polygon id="path-1" points="19.9872 8.84045217 19.9872 0.183176812 0.00016 0.183176812 0.00016 8.84045217"></polygon>
        <polygon id="path-3" points="0.34404 17.4492754 17.24404 17.4492754 17.24404 0.158504348 0.34404 0.158504348"></polygon>
    </defs>
    <g id="Page-1" stroke="none" stroke-width="1" fill="none" fill-rule="evenodd">
        <g id="delete_normal">
            <g id="Page-1" transform="translate(10.000000, 6.000000)">
                <g id="Group-3" transform="translate(0.000000, 0.222701)">
                    <mask id="mask-2" fill="white">
                        <use xlink:href="#path-1"></use>
                    </mask>
                    <g id="Clip-2"></g>
                    <path d="M6.46576,3.04242319 C6.46576,2.72103188 6.72376,2.45929275 7.04056,2.45929275 L12.94736,2.45929275 C13.26416,2.45929275 13.52216,2.72103188 13.52216,3.04242319 L13.52216,4.95453913 L6.46576,4.95453913 L6.46576,3.04242319 Z M15.76576,4.95453913 L15.76576,3.04242319 C15.76576,1.46590145 14.50136,0.183176812 12.94736,0.183176812 L7.04056,0.183176812 C5.48656,0.183176812 4.22216,1.46590145 4.22216,3.04242319 L4.22216,4.95453913 L0.00016,4.95453913 L0.00016,8.84045217 L19.98736,8.84045217 L19.98736,4.95453913 L15.76576,4.95453913 Z" id="Fill-1" fill="#A0A0A0" mask="url(#mask-2)"></path>
                </g>
                <g id="Group-6" transform="translate(1.200000, 10.367629)">
                    <mask id="mask-4" fill="white">
                        <use xlink:href="#path-3"></use>
                    </mask>
                    <g id="Clip-5"></g>
                    <path d="M14.37124,14.0298667 C14.37124,14.5910841 13.91884,15.0500406 13.36564,15.0500406 C12.81284,15.0500406 12.36084,14.5910841 12.36084,14.0298667 L12.36084,3.57775072 C12.36084,3.01693913 12.81284,2.55798261 13.36564,2.55798261 C13.91884,2.55798261 14.37124,3.01693913 14.37124,3.57775072 L14.37124,14.0298667 Z M9.79884,14.0298667 C9.79884,14.5910841 9.34644,15.0500406 8.79404,15.0500406 C8.24084,15.0500406 7.78844,14.5910841 7.78844,14.0298667 L7.78844,3.57775072 C7.78844,3.01693913 8.24084,2.55798261 8.79404,2.55798261 C9.34644,2.55798261 9.79884,3.01693913 9.79884,3.57775072 L9.79884,14.0298667 Z M5.22684,14.0298667 C5.22684,14.5910841 4.77444,15.0500406 4.22164,15.0500406 C3.66844,15.0500406 3.21604,14.5910841 3.21604,14.0298667 L3.21604,3.57775072 C3.21604,3.01693913 3.66844,2.55798261 4.22164,2.55798261 C4.77444,2.55798261 5.22684,3.01693913 5.22684,3.57775072 L5.22684,14.0298667 Z M0.34404,17.4495188 L17.24404,17.4495188 L17.24404,0.158910145 L0.34404,0.158910145 L0.34404,17.4495188 Z" id="Fill-4" fill="#A0A0A0" mask="url(#mask-4)"></path>
                </g>
            </g>
        </g>
    </g>
</svg>