<?xml version="1.0" encoding="UTF-8"?>
<svg width="40px" height="40px" viewBox="0 0 40 40" version="1.1" xmlns="http://www.w3.org/2000/svg" xmlns:xlink="http://www.w3.org/1999/xlink">
    <!-- Generator: Sketch 44.1 (41455) - http://www.bohemiancoding.com/sketch -->
    <title>end_call_pressed</title>
    <desc>Created with Sketch.</desc>
    <defs>
        <polygon id="path-1" points="5.86284874e-21 5.00332963e-05 5.86284874e-21 7.57632764 22.9352539 7.57632764 22.9352539 5.00332963e-05 0 5.00332963e-05"></polygon>
    </defs>
    <g id="Page-1" stroke="none" stroke-width="1" fill="none" fill-rule="evenodd">
        <g id="end_call_pressed">
            <g id="Page-1" transform="translate(9.000000, 16.000000)">
                <mask id="mask-2" fill="white">
                    <use xlink:href="#path-1"></use>
                </mask>
                <g id="Clip-2"></g>
                <path d="M21.7316185,2.01431907 C21.7316185,2.01431907 19.4838191,1.22593727 19.4327,1.21285714 C16.9360103,0.41797101 14.2034806,5.00332963e-05 11.4505464,5.00332963e-05 C8.23977524,5.00332963e-05 5.05568119,0.566927281 2.24254326,1.63942673 L1.20364984,2.01431907 C0.265336364,2.3448962 -0.229415987,3.37643982 0.104047962,4.30663028 L0.848555799,6.38308355 C1.18201975,7.31320253 2.22257147,7.80374326 3.16088495,7.47316613 L5.30702288,6.71687711 C6.24533636,6.38629998 6.74008871,5.35482784 6.40662476,4.42463738 L6.07936144,3.51181563 C7.80198213,3.11447978 9.61891003,2.90762784 11.4505464,2.90762784 C13.2934304,2.90762784 15.1212455,3.1171244 16.8532392,3.51932062 L16.5286436,4.42463738 C16.1951796,5.35482784 16.689932,6.38629998 17.6282455,6.71687711 L19.7743834,7.47316613 C20.7126969,7.80374326 21.7532486,7.31320253 22.0867125,6.38308355 L22.8312204,4.30663028 C23.1646843,3.37643982 22.6698599,2.3448962 21.7316185,2.01431907" id="Fill-1" fill="#AF0419" mask="url(#mask-2)"></path>
            </g>
        </g>
    </g>
</svg>