<?xml version="1.0" encoding="UTF-8"?>
<svg width="40px" height="40px" viewBox="0 0 40 40" version="1.1" xmlns="http://www.w3.org/2000/svg" xmlns:xlink="http://www.w3.org/1999/xlink">
    <!-- Generator: Sketch 44.1 (41455) - http://www.bohemiancoding.com/sketch -->
    <title>error_small</title>
    <desc>Created with Sketch.</desc>
    <defs>
        <polygon id="path-1" points="0.000322580645 0 19.3548387 0 19.3548387 19.9997333 0.000322580645 19.9997333"></polygon>
    </defs>
    <g id="Page-1" stroke="none" stroke-width="1" fill="none" fill-rule="evenodd">
        <g id="error_small">
            <g id="Page-1" transform="translate(10.000000, 10.000000)">
                <g id="Group-3">
                    <mask id="mask-2" fill="white">
                        <use xlink:href="#path-1"></use>
                    </mask>
                    <g id="Clip-2"></g>
                    <path d="M19.3551613,9.99973333 C19.3551613,15.5224 15.0222581,19.9997333 9.67774194,19.9997333 C4.33258065,19.9997333 0.000322580645,15.5224 0.000322580645,9.99973333 C0.000322580645,4.47706667 4.33258065,-0.000266666667 9.67774194,-0.000266666667 C15.0222581,-0.000266666667 19.3551613,4.47706667 19.3551613,9.99973333" id="Fill-1" fill="#D0011B" mask="url(#mask-2)"></path>
                </g>
                <path d="M10.8773548,12.3246 L8.51670968,12.3246 L8.02316129,2.55726667 L11.3709032,2.55726667 L10.8773548,12.3246 Z M7.98445161,15.7432667 C7.98445161,15.1832667 8.1296129,14.7599333 8.41929032,14.4739333 C8.71025806,14.1872667 9.13283871,14.0439333 9.6863871,14.0439333 C10.221871,14.0439333 10.6360645,14.1912667 10.9302581,14.4839333 C11.2231613,14.7779333 11.3709032,15.1979333 11.3709032,15.7432667 C11.3709032,16.2706 11.221871,16.6852667 10.9250968,16.9879333 C10.6283226,17.2906 10.2160645,17.4432667 9.6863871,17.4432667 C9.14509677,17.4432667 8.7263871,17.2946 8.4296129,16.9986 C8.13219355,16.7012667 7.98445161,16.2832667 7.98445161,15.7432667 L7.98445161,15.7432667 Z" id="Fill-4" fill="#FFFFFF"></path>
            </g>
        </g>
    </g>
</svg>