<?xml version="1.0" encoding="UTF-8"?>
<svg width="40px" height="40px" viewBox="0 0 40 40" version="1.1" xmlns="http://www.w3.org/2000/svg" xmlns:xlink="http://www.w3.org/1999/xlink">
    <!-- Generator: Sketch 44.1 (41455) - http://www.bohemiancoding.com/sketch -->
    <title>file</title>
    <desc>Created with Sketch.</desc>
    <defs></defs>
    <g id="Page-1" stroke="none" stroke-width="1" fill="none" fill-rule="evenodd">
        <g id="file">
            <g id="Page-1-Copy-3" transform="translate(10.000000, 6.000000)">
                <polygon id="Fill-1" fill="#D7E7F4" points="19 26.8912667 1 26.8912667 1 1.0026 12.2913333 1.0026 19 7.70326667"></polygon>
                <path d="M2,25.7799333 L2,1.99993333 L11.1333333,1.99993333 L11.1333333,7.91593333 C11.1333333,8.46793333 11.5813333,8.91593333 12.1333333,8.91593333 L18,8.91593333 L18,25.7799333 L2,25.7799333 Z M13.1333333,3.44193333 L16.5813333,6.91593333 L13.1333333,6.91593333 L13.1333333,3.44193333 Z M19.9833333,7.7606 C19.976,7.71393333 19.96,7.6706 19.9466667,7.62593333 C19.9366667,7.5946 19.9273333,7.5626 19.9133333,7.5326 C19.8653333,7.41593333 19.802,7.3046 19.7093333,7.21126667 L12.8433333,0.295266667 C12.7973333,0.249933333 12.744,0.2186 12.692,0.1826 C12.684,0.177933333 12.6773333,0.171266667 12.6686667,0.165933333 C12.624,0.1366 12.578,0.111933333 12.5293333,0.0912666667 C12.4926667,0.0739333333 12.4553333,0.0626 12.416,0.0499333333 C12.3766667,0.0386 12.3386667,0.0246 12.2973333,0.0172666667 C12.2386667,0.00726666667 12.1793333,-6.66666667e-05 12.1186667,-6.66666667e-05 L1,-6.66666667e-05 C0.448,-6.66666667e-05 0,0.447933333 0,0.999933333 L0,26.7799333 C0,27.3319333 0.448,27.7799333 1,27.7799333 L19,27.7799333 C19.552,27.7799333 20,27.3319333 20,26.7799333 L20,7.93326667 C20,7.87526667 19.9926667,7.81726667 19.9833333,7.7606 L19.9833333,7.7606 Z" id="Fill-2" fill="#A0A0A0"></path>
            </g>
        </g>
    </g>
</svg>