<?xml version="1.0" encoding="UTF-8"?>
<svg width="40px" height="40px" viewBox="0 0 40 40" version="1.1" xmlns="http://www.w3.org/2000/svg" xmlns:xlink="http://www.w3.org/1999/xlink">
    <!-- Generator: Sketch 44.1 (41455) - http://www.bohemiancoding.com/sketch -->
    <title>folder</title>
    <desc>Created with Sketch.</desc>
    <defs>
        <polygon id="path-1" points="29.8871053 0.0281913237 29.8871053 24.0266963 0 24.0266963 0 0.0281913237 29.8871053 0.0281913237"></polygon>
    </defs>
    <g id="Page-1" stroke="none" stroke-width="1" fill="none" fill-rule="evenodd">
        <g id="folder">
            <g id="Page-1-Copy-2" transform="translate(5.000000, 7.000000)">
                <path d="M2.33139474,1.82466741 C1.82139474,1.82466741 1.40692105,2.27717019 1.40692105,2.83539043 L1.40692105,22.7647341 C1.40692105,23.3229544 1.82139474,23.7754572 2.33139474,23.7754572 L27.1840263,23.7754572 C27.6932368,23.7754572 28.1069211,23.3229544 28.1069211,22.7647341 L28.1069211,6.43218687 C28.1069211,5.87556841 27.6932368,5.42226474 27.1840263,5.42226474 L14.3985,5.42226474 C13.7045526,5.42226474 13.1408684,4.80718131 13.1408684,4.0487386 L13.1408684,2.83539043 C13.1408684,2.28758176 11.2066579,1.82466741 10.7053421,1.82466741 L2.33139474,1.82466741 Z" id="Fill-1" fill="#D7E7F4"></path>
                <g id="Group-5" transform="translate(0.000000, 0.772699)">
                    <mask id="mask-2" fill="white">
                        <use xlink:href="#path-1"></use>
                    </mask>
                    <g id="Clip-4"></g>
                    <path d="M3.23881579,2.43086096 C2.75881579,2.43086096 2.36802632,2.82650056 2.36802632,3.31424249 L2.36802632,20.7408053 C2.36802632,21.2285473 2.75881579,21.6241869 3.23881579,21.6241869 L26.6490789,21.6241869 C27.1290789,21.6241869 27.5190789,21.2285473 27.5190789,20.7408053 L27.5190789,6.45933704 C27.5190789,5.972396 27.1290789,5.5767564 26.6490789,5.5767564 L13.1822368,5.5767564 C12.5285526,5.5767564 11.9980263,5.0385584 11.9980263,4.37542158 L11.9980263,3.31424249 C11.9980263,2.83531034 11.5993421,2.43086096 11.1272368,2.43086096 L3.23881579,2.43086096 Z M26.6490789,24.0268565 L3.23881579,24.0268565 C1.45302632,24.0268565 -0.000394736842,22.5524182 -0.000394736842,20.7408053 L-0.000394736842,3.31424249 C-0.000394736842,1.50262959 1.45302632,0.0281913237 3.23881579,0.0281913237 L11.1272368,0.0281913237 C12.8664474,0.0281913237 14.2906579,1.42654505 14.3632895,3.17408676 L26.6490789,3.17408676 C28.4348684,3.17408676 29.8875,4.64852503 29.8875,6.45933704 L29.8875,20.7408053 C29.8875,22.5524182 28.4348684,24.0268565 26.6490789,24.0268565 L26.6490789,24.0268565 Z" id="Fill-3" fill="#A0A0A0" mask="url(#mask-2)"></path>
                </g>
            </g>
        </g>
    </g>
</svg>