<?xml version="1.0" encoding="UTF-8"?>
<svg width="40px" height="40px" viewBox="0 0 40 40" version="1.1" xmlns="http://www.w3.org/2000/svg" xmlns:xlink="http://www.w3.org/1999/xlink">
    <!-- Generator: Sketch 44.1 (41455) - http://www.bohemiancoding.com/sketch -->
    <title>microphone_pressed</title>
    <desc>Created with Sketch.</desc>
    <defs></defs>
    <g id="Page-1" stroke="none" stroke-width="1" fill="none" fill-rule="evenodd">
        <g id="microphone_pressed" fill="#2468B2">
            <g id="Page-1" transform="translate(13.000000, 9.000000)">
                <path d="M6.29631651,15.2968552 L8.69792697,15.2968552 C10.3402835,15.2968552 11.6839235,13.926098 11.6839235,12.2507944 L11.6839235,3.04606079 C11.6839235,1.37075715 10.3402835,0 8.69792697,0 L6.29631651,0 C4.65396003,0 3.31051476,1.37075715 3.31051476,3.04606079 L3.31051476,12.2507944 C3.31051476,13.926098 4.65396003,15.2968552 6.29631651,15.2968552" id="Fill-1"></path>
                <path d="M13.4364,7.54909736 L13.4364,12.0630603 C13.4364,14.7266997 11.3196802,16.8861388 8.7087345,16.8861388 L6.28550897,16.8861388 C3.6745633,16.8861388 1.55784348,14.7266997 1.55784348,12.0630603 L1.55784348,7.54909736 L0,7.54909736 L0,12.1292142 C0,15.6341806 2.78503468,18.4754225 6.22066374,18.4754225 L6.81556522,18.4754225 L6.81556522,21.2566689 L2.92095652,21.2566689 L2.92095652,22.8459525 L12.073287,22.8459525 L12.073287,21.2566689 L8.17867826,21.2566689 L8.17867826,18.4754225 L8.77377447,18.4754225 C12.2092088,18.4754225 14.9942435,15.6341806 14.9942435,12.1294129 L14.9942435,7.54909736 L13.4364,7.54909736 Z" id="Fill-3"></path>
            </g>
        </g>
    </g>
</svg>