<?xml version="1.0" encoding="UTF-8"?>
<svg width="40px" height="40px" viewBox="0 0 40 40" version="1.1" xmlns="http://www.w3.org/2000/svg" xmlns:xlink="http://www.w3.org/1999/xlink">
    <!-- Generator: Sketch 44.1 (41455) - http://www.bohemiancoding.com/sketch -->
    <title>profile</title>
    <desc>Created with Sketch.</desc>
    <defs></defs>
    <g id="Page-1" stroke="none" stroke-width="1" fill="none" fill-rule="evenodd">
        <g id="profile">
            <g id="Page-1-Copy-8" transform="translate(5.000000, 5.000000)">
                <path d="M18.51125,15.50545 C17.48225,16.14095 16.30025,16.49345 15.06025,16.50445 L14.99875,16.50445 C13.73925,16.50445 12.53475,16.15345 11.48775,15.50595 C10.01025,16.26395 9.03425,17.55845 9.03425,19.02745 L9.03425,26.11995 C10.81175,27.07745 12.84325,27.62195 15.00025,27.62195 C17.15675,27.62195 19.18825,27.07745 20.96625,26.11995 L20.96625,19.02745 C20.96625,17.55845 19.98925,16.26345 18.51125,15.50545" id="Fill-1" fill="#A6CCED"></path>
                <path d="M18.38185,6.356 C17.47335,5.4635 16.27435,4.9725 15.00235,4.9725 C14.98685,4.9725 14.97235,4.9725 14.95685,4.9735 C13.66735,4.985 12.45985,5.4975 11.55685,6.417 C10.65385,7.337 10.16285,8.5535 10.17385,9.843 C10.18535,11.1315 10.69835,12.3395 11.61835,13.2425 C11.95385,13.572 12.33185,13.8485 12.73835,14.0675 C12.78185,14.091 12.82635,14.1115 12.87085,14.1335 C13.13335,14.2645 13.40635,14.373 13.68685,14.453 C14.12635,14.578 14.58285,14.6395 15.04385,14.6255 C15.46835,14.6215 15.88235,14.5585 16.28085,14.4495 C16.57085,14.37 16.85135,14.2635 17.12085,14.1315 C17.16535,14.1095 17.21135,14.09 17.25585,14.0665 C17.68885,13.8365 18.09035,13.5415 18.44385,13.181 C19.34685,12.262 19.83785,11.0455 19.82635,9.756 C19.81485,8.467 19.30185,7.2595 18.38185,6.356" id="Fill-3" fill="#A6CCED"></path>
                <g id="Group-7" fill="#5593D7">
                    <path d="M15.04395,14.62555 C14.58295,14.63955 14.12645,14.57805 13.68695,14.45305 C13.40645,14.37305 13.13345,14.26455 12.87045,14.13355 C12.82595,14.11155 12.78195,14.09105 12.73845,14.06755 C12.33195,13.84855 11.95345,13.57205 11.61795,13.24255 C10.69845,12.33955 10.18545,11.13155 10.17395,9.84305 C10.16245,8.55305 10.65395,7.33705 11.55645,6.41705 C12.45995,5.49755 13.66745,4.98505 14.95695,4.97355 C14.97195,4.97255 14.98695,4.97255 15.00245,4.97255 C16.27445,4.97255 17.47295,5.46355 18.38195,6.35605 C19.30195,7.25955 19.81495,8.46705 19.82595,9.75605 C19.83795,11.04555 19.34645,12.26155 18.44395,13.18105 C18.09045,13.54155 17.68895,13.83655 17.25595,14.06655 C17.21145,14.09005 17.16545,14.10955 17.12045,14.13155 C16.85145,14.26355 16.57095,14.37005 16.28095,14.44905 C15.88245,14.55855 15.46845,14.62155 15.04395,14.62555 M14.99995,27.62205 C12.84345,27.62205 10.81145,27.07705 9.03395,26.11955 L9.03395,19.02755 C9.03395,17.55855 10.01045,16.26355 11.48795,15.50605 C12.53445,16.15355 13.73945,16.50455 14.99845,16.50455 L15.05995,16.50455 C16.30045,16.49305 17.48245,16.14105 18.51145,15.50555 C19.98945,16.26305 20.96645,17.55855 20.96645,19.02755 L20.96645,26.11955 C19.18845,27.07705 17.15695,27.62205 14.99995,27.62205 M29.82695,12.71605 C29.75145,12.21955 29.65145,11.73055 29.52795,11.25155 C29.34295,10.53205 29.10595,9.83455 28.82145,9.16105 C28.63195,8.71255 28.42045,8.27505 28.18995,7.85005 C27.95895,7.42505 27.70795,7.01205 27.43845,6.61355 C27.03395,6.01455 26.58745,5.44755 26.10345,4.91455 C25.78095,4.55905 25.44095,4.21955 25.08595,3.89655 C24.55345,3.41255 23.98545,2.96655 23.38695,2.56155 C22.98795,2.29205 22.57545,2.04155 22.14995,1.81055 C21.72495,1.57955 21.28745,1.36855 20.83895,1.17855 C20.16595,0.89405 19.46795,0.65705 18.74895,0.47205 C18.26945,0.34905 17.78145,0.24855 17.28445,0.17305 C16.53945,0.05905 15.77695,5e-05 14.99995,5e-05 C14.22345,5e-05 13.46045,0.05905 12.71595,0.17305 C12.21945,0.24855 11.73045,0.34905 11.25145,0.47205 C10.53245,0.65705 9.83445,0.89405 9.16145,1.17855 C8.71295,1.36855 8.27545,1.57955 7.84995,1.81055 C7.42545,2.04155 7.01295,2.29205 6.61345,2.56155 C6.01495,2.96655 5.44745,3.41255 4.91445,3.89655 C4.55895,4.21955 4.21995,4.55905 3.89695,4.91455 C3.41245,5.44755 2.96645,6.01455 2.56195,6.61355 C2.29245,7.01205 2.04145,7.42505 1.81045,7.85005 C1.57945,8.27505 1.36845,8.71255 1.17895,9.16105 C0.89395,9.83455 0.65745,10.53205 0.47195,11.25155 C0.34895,11.73055 0.24895,12.21955 0.17295,12.71605 C0.05895,13.46055 -5e-05,14.22305 -5e-05,15.00005 C-5e-05,15.77705 0.05895,16.53955 0.17295,17.28405 C0.24895,17.78105 0.34895,18.26955 0.47195,18.74855 C0.65745,19.46805 0.89395,20.16555 1.17895,20.83905 C1.36845,21.28705 1.57945,21.72455 1.81045,22.15005 C2.04145,22.57455 2.29245,22.98805 2.56195,23.38655 C2.96645,23.98555 3.41245,24.55255 3.89695,25.08555 C4.21995,25.44105 4.55895,25.78055 4.91445,26.10305 C5.44745,26.58755 6.01495,27.03355 6.61345,27.43805 C7.01295,27.70755 7.42545,27.95855 7.84995,28.18955 C8.27545,28.42055 8.71295,28.63155 9.16145,28.82155 C9.83445,29.10605 10.53245,29.34305 11.25145,29.52805 C11.73045,29.65105 12.21945,29.75155 12.71595,29.82705 C13.46045,29.94105 14.22345,30.00005 14.99995,30.00005 C15.77695,30.00005 16.53945,29.94105 17.28445,29.82705 C17.78145,29.75155 18.26945,29.65105 18.74895,29.52805 C19.46795,29.34305 20.16595,29.10605 20.83895,28.82155 C21.28745,28.63155 21.72495,28.42055 22.14995,28.18955 C22.57545,27.95855 22.98795,27.70755 23.38695,27.43805 C23.98545,27.03355 24.55345,26.58755 25.08595,26.10305 C25.44095,25.78055 25.78095,25.44105 26.10345,25.08555 C26.58745,24.55255 27.03395,23.98555 27.43845,23.38655 C27.70795,22.98805 27.95895,22.57455 28.18995,22.15005 C28.42045,21.72455 28.63195,21.28705 28.82145,20.83905 C29.10595,20.16555 29.34295,19.46805 29.52795,18.74855 C29.65145,18.26955 29.75145,17.78105 29.82695,17.28405 C29.94095,16.53955 29.99995,15.77705 29.99995,15.00005 C29.99995,14.22305 29.94095,13.46055 29.82695,12.71605" id="Fill-5"></path>
                </g>
            </g>
        </g>
    </g>
</svg>