<?xml version="1.0" encoding="UTF-8"?>
<svg width="40px" height="40px" viewBox="0 0 40 40" version="1.1" xmlns="http://www.w3.org/2000/svg" xmlns:xlink="http://www.w3.org/1999/xlink">
    <!-- Generator: Sketch 44.1 (41455) - http://www.bohemiancoding.com/sketch -->
    <title>settings_pressed</title>
    <desc>Created with Sketch.</desc>
    <defs>
        <polygon id="path-1" points="20 10.0000217 20 20 0 20 0 10.0000217 0 4.34782609e-05 20 4.34782609e-05"></polygon>
    </defs>
    <g id="Page-1" stroke="none" stroke-width="1" fill="none" fill-rule="evenodd">
        <g id="settings_pressed">
            <g id="Page-1" transform="translate(10.000000, 10.000000)">
                <mask id="mask-2" fill="white">
                    <use xlink:href="#path-1"></use>
                </mask>
                <g id="Clip-2"></g>
                <path d="M6.315,10.0000435 C6.315,7.99482609 7.94043478,6.3693913 9.94565217,6.3693913 C11.9508696,6.3693913 13.5763043,7.99482609 13.5763043,10.0000435 C13.5763043,12.0050435 11.9508696,13.6306957 9.94565217,13.6306957 C7.94043478,13.6306957 6.315,12.0050435 6.315,10.0000435 Z M20,12.1739565 L20,7.82613043 L17.59,7.82613043 C17.4208696,7.22265217 17.1815217,6.64895652 16.8806522,6.11417391 L18.585,4.40982609 L15.5902174,1.41504348 L13.8858696,3.11917391 C13.3508696,2.81852174 12.7771739,2.5793913 12.173913,2.41004348 L12.173913,4.34782609e-05 L7.82608696,4.34782609e-05 L7.82608696,2.41004348 C7.22282609,2.5793913 6.64913043,2.81852174 6.11413043,3.11917391 L4.40978261,1.41504348 L1.415,4.40982609 L3.11934783,6.11417391 C2.81847826,6.64895652 2.57913043,7.22265217 2.41,7.82613043 L0,7.82613043 L0,12.1739565 L2.41,12.1739565 C2.57913043,12.7772174 2.81847826,13.350913 3.11934783,13.885913 L1.415,15.5902609 L4.40978261,18.5850435 L6.11413043,16.8806957 C6.64913043,17.1815652 7.22282609,17.4206957 7.82608696,17.5900435 L7.82608696,20.0000435 L12.173913,20.0000435 L12.173913,17.5900435 C12.7771739,17.4206957 13.3508696,17.1815652 13.8858696,16.8806957 L15.5902174,18.5850435 L18.585,15.5902609 L16.8806522,13.885913 C17.1815217,13.350913 17.4208696,12.7772174 17.59,12.1739565 L20,12.1739565 Z" id="Fill-1" fill="#2468B2" mask="url(#mask-2)"></path>
            </g>
        </g>
    </g>
</svg>