<?xml version="1.0" encoding="UTF-8"?>
<svg width="40px" height="40px" viewBox="0 0 40 40" version="1.1" xmlns="http://www.w3.org/2000/svg" xmlns:xlink="http://www.w3.org/1999/xlink">
    <!-- Generator: Sketch 44.1 (41455) - http://www.bohemiancoding.com/sketch -->
    <title>lock_hover</title>
    <desc>Created with Sketch.</desc>
    <defs></defs>
    <g id="Page-1" stroke="none" stroke-width="1" fill="none" fill-rule="evenodd">
        <g id="lock_hover" fill-rule="nonzero" fill="#5593D7">
            <g id="Asset-23" transform="translate(13.000000, 9.000000)">
                <path d="M13,9.77 L1,9.77 L1,7 C0.986595112,4.33092258 2.73794894,1.97389628 5.29734449,1.21650049 C7.85674004,0.459104702 10.6087393,1.48346451 12.05,3.73 L13.18,3.73 C11.6723617,0.895816604 8.43012552,-0.549599576 5.31436051,0.223431653 C2.19859549,0.996462882 0.00800289618,3.78978118 -8.8817842e-16,7 L-8.8817842e-16,14.52 C3.62425323e-16,18.3859932 3.13400675,21.52 7,21.52 C10.8659932,21.52 14,18.3859932 14,14.52 L14,9.77 L13,9.77 Z M5.31,18.58 L6,14.79 C5.46165165,14.35201 5.25728061,13.6225741 5.48969549,12.9686342 C5.72211037,12.3146942 6.34098693,11.8778463 7.035,11.8778463 C7.72901307,11.8778463 8.34788963,12.3146942 8.58030451,12.9686342 C8.81271939,13.6225741 8.60834835,14.35201 8.07,14.79 L8.73,18.58 L5.31,18.58 Z" id="Shape"></path>
            </g>
        </g>
    </g>
</svg>